<svg xmlns="http://www.w3.org/2000/svg" width="24" height="24" viewBox="0 0 24 24" fill="none">
  <path d="M1 14l5-8 5 8a5.001 5.001 0 01-10 0z" fill="currentColor" fill-opacity="0.2"/>
  <path d="M13 14l5-8 5 8a5.001 5.001 0 01-10 0z" fill="currentColor" fill-opacity="0.2"/>
  <line x1="12" y1="3" x2="12" y2="21" stroke="currentColor" stroke-width="2" stroke-linecap="round" stroke-linejoin="round"/>
  <line x1="6" y1="6" x2="18" y2="6" stroke="currentColor" stroke-width="2" stroke-linecap="round" stroke-linejoin="round"/>
  <path d="M1 14l5-8 5 8a5.001 5.001 0 01-10 0z" stroke="currentColor" stroke-width="2" stroke-linecap="round" stroke-linejoin="round"/>
  <path d="M13 14l5-8 5 8a5.001 5.001 0 01-10 0z" stroke="currentColor" stroke-width="2" stroke-linecap="round" stroke-linejoin="round"/>
  <line x1="8" y1="21" x2="16" y2="21" stroke="currentColor" stroke-width="2" stroke-linecap="round" stroke-linejoin="round"/>
</svg>
