<svg xmlns="http://www.w3.org/2000/svg" viewBox="0 0 24 24" fill="none">
  <path d="M2 11L5 6L8 11C8 12.66 6.66 14 5 14C3.34 14 2 12.66 2 11Z" fill="currentColor" opacity="0.3"/>
  <path d="M16 11L19 6L22 11C22 12.66 20.66 14 19 14C17.34 14 16 12.66 16 11Z" fill="currentColor" opacity="0.3"/>
  <path d="M12 2V22" stroke="currentColor" stroke-width="2" stroke-linecap="round" stroke-linejoin="round"/>
  <path d="M5 6L19 6" stroke="currentColor" stroke-width="2" stroke-linecap="round" stroke-linejoin="round"/>
  <path d="M2 11L5 6L8 11C8 12.66 6.66 14 5 14C3.34 14 2 12.66 2 11Z" stroke="currentColor" stroke-width="2" stroke-linecap="round" stroke-linejoin="round"/>
  <path d="M16 11L19 6L22 11C22 12.66 20.66 14 19 14C17.34 14 16 12.66 16 11Z" stroke="currentColor" stroke-width="2" stroke-linecap="round" stroke-linejoin="round"/>
  <path d="M8 22H16" stroke="currentColor" stroke-width="2" stroke-linecap="round" stroke-linejoin="round"/>
</svg>
