<svg xmlns="http://www.w3.org/2000/svg" viewBox="0 0 24 24" fill="none">
  <path d="M5 5H19C20.1 5 21 5.9 21 7V17C21 18.1 20.1 19 19 19H5C3.9 19 3 18.1 3 17V7C3 5.9 3.9 5 5 5Z" fill="currentColor" opacity="0.3"/>
  <path d="M17 22H5C3.9 22 3 21.1 3 20V7C3 5.9 3.9 5 5 5H8" stroke="currentColor" stroke-width="2" stroke-linecap="round" stroke-linejoin="round"/>
  <path d="M8 2H19C20.1 2 21 2.9 21 4V17C21 18.1 20.1 19 19 19H17" stroke="currentColor" stroke-width="2" stroke-linecap="round" stroke-linejoin="round"/>
  <path d="M8 2V8L10.5 6.5L13 8V2" stroke="currentColor" stroke-width="2" stroke-linecap="round" stroke-linejoin="round"/>
  <path d="M17 19C17 20.66 15.66 22 14 22H17C18.66 22 17 20.66 17 19Z" stroke="currentColor" stroke-width="2" stroke-linecap="round" stroke-linejoin="round"/>
  <path d="M7 13H13" stroke="currentColor" stroke-width="2" stroke-linecap="round" stroke-linejoin="round"/>
  <path d="M7 17H11" stroke="currentColor" stroke-width="2" stroke-linecap="round" stroke-linejoin="round"/>
</svg>
