<svg xmlns="http://www.w3.org/2000/svg" viewBox="0 0 24 24" fill="none">
  <path d="M12 2L3 7V12C3 17.25 6.81 22.13 12 23C17.19 22.13 21 17.25 21 12V7L12 2Z" fill="currentColor" opacity="0.3"/>
  <path d="M12 2L3 7V12C3 17.25 6.81 22.13 12 23C17.19 22.13 21 17.25 21 12V7L12 2Z" stroke="currentColor" stroke-width="2" stroke-linecap="round" stroke-linejoin="round"/>
  <rect x="9" y="11" width="6" height="5" rx="1" stroke="currentColor" stroke-width="2" stroke-linecap="round" stroke-linejoin="round"/>
  <path d="M10 11V9C10 7.9 10.9 7 12 7C13.1 7 14 7.9 14 9V11" stroke="currentColor" stroke-width="2" stroke-linecap="round" stroke-linejoin="round"/>
  <circle cx="12" cy="14" r="1" fill="currentColor"/>
</svg>
