<svg xmlns="http://www.w3.org/2000/svg" width="24" height="24" viewBox="0 0 24 24" fill="currentColor">
  <path d="M9.101 23.691v-7.98H6.627v-3.667h2.474v-1.58c0-4.085 1.848-5.978 5.858-5.978.401 0 1.092.044 1.545.087v3.215h-1.199c-1.504 0-1.975.714-1.975 2.147v2.109h3.064l-.526 3.667h-2.538v8.126C18.235 23.208 21.236 20.163 22.89 16.32c.275-.641.196-1.381-.207-1.955C19.4 9.273 15.916 6.75 12 6.75c-3.916 0-7.4 2.523-10.683 7.615-.403.574-.482 1.314-.207 1.955 1.654 3.843 4.655 6.888 7.991 7.371z" opacity="0"/>
  <path d="M22 12c0-5.523-4.477-10-10-10S2 6.477 2 12c0 4.991 3.657 9.128 8.438 9.878V14.89h-2.54V12h2.54V9.797c0-2.506 1.492-3.89 3.777-3.89 1.094 0 2.238.195 2.238.195v2.46h-1.26c-1.243 0-1.63.771-1.63 1.562V12h2.773l-.443 2.89h-2.33v6.988C18.343 21.128 22 16.991 22 12z"/>
</svg>
