<svg xmlns="http://www.w3.org/2000/svg" viewBox="0 0 24 24" fill="none" stroke="currentColor" stroke-width="2" stroke-linecap="round" stroke-linejoin="round">
  <path d="M21 11.5a8.38 8.38 0 0 1-.9 3.8 8.5 8.5 0 0 1-7.6 4.7 8.38 8.38 0 0 1-3.8-.9L3 21l1.9-5.7a8.38 8.38 0 0 1-.9-3.8 8.5 8.5 0 0 1 4.7-7.6 8.38 8.38 0 0 1 3.8-.9h.5a8.48 8.48 0 0 1 8 8v.5z"/>
  <path d="M9.1 9a.9.9 0 0 0-.9.9v0c0 .25.05.5.14.73L9.5 12l-1.1 2.3A2.3 2.3 0 0 0 9.5 17.5c.8 0 1.55-.2 2.23-.57L12 16.6l1 .52A4.5 4.5 0 0 0 16.9 15a.9.9 0 0 0-.9-.9 3.3 3.3 0 0 1-1.65-.44L14 13.4l-1.3.65a3.5 3.5 0 0 1-1.7.45 1.7 1.7 0 0 1-.73-.17L9.8 13.9l.36-.7a3 3 0 0 0 .34-1.4 3 3 0 0 0-.34-1.4L9.8 9.9A.9.9 0 0 0 9.1 9z" stroke-width="1.2"/>
</svg>
