<svg xmlns="http://www.w3.org/2000/svg" viewBox="0 0 24 24" fill="none">
  <path d="M21 11.5a8.38 8.38 0 0 1-.9 3.8 8.5 8.5 0 0 1-7.6 4.7 8.38 8.38 0 0 1-3.8-.9L3 21l1.9-5.7a8.38 8.38 0 0 1-.9-3.8 8.5 8.5 0 0 1 4.7-7.6 8.38 8.38 0 0 1 3.8-.9h.5a8.48 8.48 0 0 1 8 8v.5z" fill="currentColor" opacity="0.2" stroke="currentColor" stroke-width="2" stroke-linecap="round" stroke-linejoin="round"/>
  <path d="M9.5 9.5a.5.5 0 0 0-.5.5 2.5 2.5 0 0 0 .27 1.13L10 12.5l-.93 1.97a1.8 1.8 0 0 0 .73 2.4c.5.28 1.06.42 1.63.43.65 0 1.28-.17 1.84-.48l.73-.4.68.36a4 4 0 0 0 1.87.47.5.5 0 0 0 .5-.5 3 3 0 0 1-1.5-.4l-.75-.4-1.07.55a3.1 3.1 0 0 1-2.3.28 1.3 1.3 0 0 1-.37-.19l.3-.63a2.5 2.5 0 0 0 0-2.26l-.23-.46a.5.5 0 0 0-.5-.5h0z" fill="currentColor" opacity="0.7" stroke="none"/>
</svg>
