<svg xmlns="http://www.w3.org/2000/svg" viewBox="0 0 24 24" fill="none">
  <path d="M8 2H4C3.45 2 3 2.45 3 3V13C3 13.55 3.45 14 4 14H8C8.55 14 9 13.55 9 13V3C9 2.45 8.55 2 8 2Z" fill="currentColor" opacity="0.3"/>
  <path d="M20 10H16C15.45 10 15 10.45 15 11V21C15 21.55 15.45 22 16 22H20C20.55 22 21 21.55 21 21V11C21 10.45 20.55 10 20 10Z" fill="currentColor" opacity="0.3"/>
  <path d="M8 2H4C3.45 2 3 2.45 3 3V13C3 13.55 3.45 14 4 14H8C8.55 14 9 13.55 9 13V3C9 2.45 8.55 2 8 2Z" stroke="currentColor" stroke-width="2" stroke-linecap="round" stroke-linejoin="round"/>
  <path d="M20 10H16C15.45 10 15 10.45 15 11V21C15 21.55 15.45 22 16 22H20C20.55 22 21 21.55 21 21V11C21 10.45 20.55 10 20 10Z" stroke="currentColor" stroke-width="2" stroke-linecap="round" stroke-linejoin="round"/>
  <path d="M9 8H15" stroke="currentColor" stroke-width="2" stroke-linecap="round" stroke-linejoin="round"/>
  <path d="M12 8V16" stroke="currentColor" stroke-width="2" stroke-linecap="round" stroke-linejoin="round"/>
  <path d="M9 16H15" stroke="currentColor" stroke-width="2" stroke-linecap="round" stroke-linejoin="round"/>
</svg>
