<svg xmlns="http://www.w3.org/2000/svg" viewBox="0 0 48 32" width="48" height="32">
  <rect width="48" height="32" rx="4" fill="#1A1F71"/>
  <path d="M19.5 21h-2.7l1.7-10.5h2.7L19.5 21zm-5.1 0l-2.6-7.2-.3 1.5-.9 4.8c-.2.7-.6.9-1.2.9H5.2l-.1-.3c.9-.2 1.9-.5 2.5-.8.4-.2.5-.4.6-.7l2-7.7h2.8l4.3 9.5h-2.9zm17.1-6.8c0-.5-.3-.9-1.1-1.2-.5-.2-1.3-.4-1.3-.7 0-.2.2-.5.9-.5.7 0 1.2.1 1.6.3l.2.1.3-1.7c-.4-.2-1.1-.4-1.9-.4-2.1 0-3.5 1.1-3.5 2.6 0 1.2 1.1 1.8 1.9 2.2.8.4 1.1.7 1.1 1 0 .6-.7.8-1.3.8-.9 0-1.4-.1-2.1-.4l-.3-.1-.3 1.8c.5.2 1.5.4 2.5.4 2.2 0 3.6-1.1 3.6-2.7 0-.9-.5-1.6-1.7-2.2-.7-.4-1.2-.6-1.2-1 0-.3.4-.7 1.2-.7.5 0 1 .1 1.4.2l.2.1.3-1.7-.2-.5zm6.5-3.7h-2c-.6 0-1.1.2-1.4.8l-3.9 9.4h2.8s.5-1.3.6-1.5h3.4c.1.4.3 1.5.3 1.5h2.4l-2.2-10.2zm-3.3 6.6c.2-.6 1.1-2.8 1.1-2.8l.2-.6.1.5.6 2.9h-2z" fill="#fff"/>
</svg>
