<svg xmlns="http://www.w3.org/2000/svg" viewBox="0 0 24 24">
  <path d="M4 12v8a1 1 0 001 1h14a1 1 0 001-1v-8H4z" fill="currentColor" opacity="0.2"/>
  <path d="M9 21v-6h6v6" fill="currentColor" opacity="0.35"/>
  <path d="M3 9l1.5-5h15L21 9" fill="none" stroke="currentColor" stroke-width="1.5" stroke-linecap="round" stroke-linejoin="round"/>
  <path d="M3 9v1a3 3 0 006 0V9m0 0v1a3 3 0 006 0V9m0 0v1a3 3 0 006 0V9" fill="none" stroke="currentColor" stroke-width="1.5" stroke-linecap="round" stroke-linejoin="round"/>
  <path d="M4 12v8a1 1 0 001 1h14a1 1 0 001-1v-8" fill="none" stroke="currentColor" stroke-width="1.5" stroke-linecap="round" stroke-linejoin="round"/>
  <path d="M9 21v-6h6v6" fill="none" stroke="currentColor" stroke-width="1.5" stroke-linecap="round" stroke-linejoin="round"/>
</svg>
