<svg xmlns="http://www.w3.org/2000/svg" width="24" height="24" viewBox="0 0 24 24" fill="none">
  <circle cx="9" cy="7" r="4" fill="currentColor" fill-opacity="0.2"/>
  <path d="M3 21v-2a4 4 0 014-4h4a4 4 0 014 4v2" fill="currentColor" fill-opacity="0.2"/>
  <path d="M17 21v-2a4 4 0 00-3-3.87" stroke="currentColor" stroke-width="2" stroke-linecap="round" stroke-linejoin="round"/>
  <path d="M3 21v-2a4 4 0 014-4h4a4 4 0 014 4v2" stroke="currentColor" stroke-width="2" stroke-linecap="round" stroke-linejoin="round"/>
  <circle cx="9" cy="7" r="4" stroke="currentColor" stroke-width="2" stroke-linecap="round" stroke-linejoin="round"/>
  <path d="M16 3.13a4 4 0 010 7.75" stroke="currentColor" stroke-width="2" stroke-linecap="round" stroke-linejoin="round"/>
  <path d="M21 21v-2a4 4 0 00-3-3.87" stroke="currentColor" stroke-width="2" stroke-linecap="round" stroke-linejoin="round"/>
</svg>
