<svg xmlns="http://www.w3.org/2000/svg" width="24" height="24" viewBox="0 0 24 24" fill="none">
  <path d="M14 2H6a2 2 0 00-2 2v16a2 2 0 002 2h12a2 2 0 002-2V8z" fill="currentColor" fill-opacity="0.2"/>
  <path d="M14 2H6a2 2 0 00-2 2v16a2 2 0 002 2h12a2 2 0 002-2V8z" stroke="currentColor" stroke-width="2" stroke-linecap="round" stroke-linejoin="round"/>
  <polyline points="14 2 14 8 20 8" stroke="currentColor" stroke-width="2" stroke-linecap="round" stroke-linejoin="round"/>
  <line x1="8" y1="18" x2="8" y2="14" stroke="currentColor" stroke-width="2" stroke-linecap="round"/>
  <line x1="12" y1="18" x2="12" y2="11" stroke="currentColor" stroke-width="2" stroke-linecap="round"/>
  <line x1="16" y1="18" x2="16" y2="13" stroke="currentColor" stroke-width="2" stroke-linecap="round"/>
</svg>
