<svg xmlns="http://www.w3.org/2000/svg" viewBox="0 0 24 24" fill="none">
  <!-- Duotone fill: hands area -->
  <path d="M8 13L5 10C3.5 8.5 3 7 4 6L7 4H10L14 8L17 5H20L22 7C23 8 22 10 20 11L16 14L13 17C12 18 10 18 9 17L8 16" fill="currentColor" opacity="0.2"/>
  <!-- Left arm -->
  <path d="M2 14L4 6L7 4" stroke="currentColor" stroke-width="2" stroke-linecap="round" stroke-linejoin="round"/>
  <!-- Right arm -->
  <path d="M22 14L20 6L17 4" stroke="currentColor" stroke-width="2" stroke-linecap="round" stroke-linejoin="round"/>
  <!-- Handshake clasp -->
  <path d="M7 4H10L14 8L17 5H17" stroke="currentColor" stroke-width="2" stroke-linecap="round" stroke-linejoin="round"/>
  <path d="M14 8L16 10C17 11 17 12 16 13L13 16C12 17 10 17 9 16L5 12" stroke="currentColor" stroke-width="2" stroke-linecap="round" stroke-linejoin="round"/>
  <!-- Fingers detail -->
  <path d="M9 16L11 18" stroke="currentColor" stroke-width="1.5" stroke-linecap="round"/>
  <path d="M11 14L13 16" stroke="currentColor" stroke-width="1.5" stroke-linecap="round"/>
</svg>
