<svg xmlns="http://www.w3.org/2000/svg" width="24" height="24" viewBox="0 0 24 24" fill="none">
  <!-- Rocket launch duotone: represents the result/growth/takeoff -->
  <!-- Background: rocket body fill -->
  <path d="M12 15l-3-3a22 22 0 0 1 2-3.95A12.88 12.88 0 0 1 22 2c0 2.72-.78 7.5-6 11.95A22.18 22.18 0 0 1 12 15z" fill="currentColor" opacity="0.3"/>
  <!-- Background: exhaust plume -->
  <path d="M4.5 16.5c-1.5 1.26-2 5-2 5s3.74-.5 5-2c.71-.84.7-2.13-.09-2.91a2.18 2.18 0 0 0-2.91-.09z" fill="currentColor" opacity="0.15"/>
  <!-- Foreground strokes -->
  <path d="M4.5 16.5c-1.5 1.26-2 5-2 5s3.74-.5 5-2c.71-.84.7-2.13-.09-2.91a2.18 2.18 0 0 0-2.91-.09z" stroke="currentColor" stroke-width="2" stroke-linecap="round" stroke-linejoin="round"/>
  <path d="M12 15l-3-3a22 22 0 0 1 2-3.95A12.88 12.88 0 0 1 22 2c0 2.72-.78 7.5-6 11.95A22.18 22.18 0 0 1 12 15z" stroke="currentColor" stroke-width="2" stroke-linecap="round" stroke-linejoin="round"/>
  <path d="M9 12H4s.55-3.03 2-4.5" stroke="currentColor" stroke-width="2" stroke-linecap="round" stroke-linejoin="round"/>
  <path d="M12 15v5s3.03-.55 4.5-2" stroke="currentColor" stroke-width="2" stroke-linecap="round" stroke-linejoin="round"/>
  <!-- Window -->
  <circle cx="14.5" cy="7" r="2.5" fill="currentColor" opacity="0.3" stroke="currentColor" stroke-width="2"/>
</svg>
