<svg xmlns="http://www.w3.org/2000/svg" viewBox="0 0 400 500" width="400" height="500">
  <rect width="400" height="500" fill="#ffffff" rx="8" stroke="#e0e0e0" stroke-width="1"/>
  <!-- Ultra-minimal layout -->
  <text x="30" y="50" fill="#212121" font-size="24" font-weight="300" font-family="Helvetica, Arial, sans-serif">María</text>
  <text x="30" y="75" fill="#212121" font-size="24" font-weight="300" font-family="Helvetica, Arial, sans-serif">García López</text>
  <text x="30" y="98" fill="#9e9e9e" font-size="10" font-family="Helvetica, Arial, sans-serif">madrid · maria@ejemplo.com</text>
  <!-- Thin separator -->
  <rect x="30" y="115" width="40" height="1" fill="#9e9e9e"/>
  <!-- Summary -->
  <rect x="30" y="130" width="300" height="6" rx="2" fill="#e0e0e0"/>
  <rect x="30" y="142" width="260" height="6" rx="2" fill="#eeeeee"/>
  <!-- Experience - minimal -->
  <text x="30" y="180" fill="#757575" font-size="9" font-family="Helvetica" letter-spacing="2">EXPERIENCIA</text>
  <rect x="30" y="195" width="180" height="7" rx="2" fill="#e0e0e0"/>
  <rect x="30" y="208" width="120" height="5" rx="2" fill="#eeeeee"/>
  <rect x="30" y="220" width="280" height="5" rx="2" fill="#f5f5f5"/>
  <rect x="30" y="245" width="160" height="7" rx="2" fill="#e0e0e0"/>
  <rect x="30" y="258" width="100" height="5" rx="2" fill="#eeeeee"/>
  <!-- Education -->
  <text x="30" y="295" fill="#757575" font-size="9" font-family="Helvetica" letter-spacing="2">EDUCACIÓN</text>
  <rect x="30" y="310" width="170" height="7" rx="2" fill="#e0e0e0"/>
  <rect x="30" y="323" width="130" height="5" rx="2" fill="#eeeeee"/>
  <!-- Skills -->
  <text x="30" y="360" fill="#757575" font-size="9" font-family="Helvetica" letter-spacing="2">HABILIDADES</text>
  <rect x="30" y="375" width="80" height="5" rx="2" fill="#e0e0e0"/>
  <rect x="30" y="386" width="100" height="5" rx="2" fill="#e0e0e0"/>
  <rect x="30" y="397" width="70" height="5" rx="2" fill="#e0e0e0"/>
  <!-- Label -->
  <rect x="140" y="440" width="120" height="30" rx="6" fill="#424242"/>
  <text x="200" y="460" text-anchor="middle" fill="white" font-size="12" font-family="Helvetica" font-weight="300" letter-spacing="2">MINIMAL</text>
</svg>
