<svg xmlns="http://www.w3.org/2000/svg" viewBox="0 0 400 500" width="400" height="500">
  <rect width="400" height="500" fill="#eceff1" rx="8"/>
  <!-- Dark sidebar -->
  <rect x="0" y="0" width="140" height="500" fill="#263238" rx="8 0 0 8"/>
  <!-- Sidebar content -->
  <circle cx="70" cy="50" r="28" fill="#37474f" stroke="#00e676" stroke-width="2"/>
  <text x="70" y="57" text-anchor="middle" fill="#00e676" font-size="22" font-family="Consolas, monospace">M</text>
  <text x="70" y="100" text-anchor="middle" fill="white" font-size="11" font-weight="bold" font-family="Consolas">María</text>
  <text x="70" y="115" text-anchor="middle" fill="white" font-size="11" font-weight="bold" font-family="Consolas">García</text>
  <!-- Sidebar Skills -->
  <text x="15" y="155" fill="#00e676" font-size="9" font-family="Consolas" letter-spacing="1">TECH STACK</text>
  <rect x="15" y="165" width="110" height="6" rx="3" fill="#37474f"/>
  <rect x="15" y="165" width="95" height="6" rx="3" fill="#00e676" opacity="0.6"/>
  <text x="15" y="183" fill="#b0bec5" font-size="8" font-family="Consolas">React</text>
  <rect x="15" y="190" width="110" height="6" rx="3" fill="#37474f"/>
  <rect x="15" y="190" width="80" height="6" rx="3" fill="#00e676" opacity="0.6"/>
  <text x="15" y="208" fill="#b0bec5" font-size="8" font-family="Consolas">TypeScript</text>
  <rect x="15" y="215" width="110" height="6" rx="3" fill="#37474f"/>
  <rect x="15" y="215" width="70" height="6" rx="3" fill="#00e676" opacity="0.6"/>
  <text x="15" y="233" fill="#b0bec5" font-size="8" font-family="Consolas">Python</text>
  <rect x="15" y="240" width="110" height="6" rx="3" fill="#37474f"/>
  <rect x="15" y="240" width="100" height="6" rx="3" fill="#00e676" opacity="0.6"/>
  <text x="15" y="258" fill="#b0bec5" font-size="8" font-family="Consolas">Node.js</text>
  <!-- Sidebar Languages -->
  <text x="15" y="295" fill="#00e676" font-size="9" font-family="Consolas" letter-spacing="1">LANGUAGES</text>
  <text x="15" y="312" fill="#b0bec5" font-size="8" font-family="Consolas">ES · Nativo</text>
  <text x="15" y="327" fill="#b0bec5" font-size="8" font-family="Consolas">EN · C1</text>
  <!-- Main content -->
  <text x="160" y="40" fill="#263238" font-size="11" font-weight="bold" font-family="Consolas">// experiencia</text>
  <rect x="160" y="50" width="210" height="8" rx="2" fill="#cfd8dc"/>
  <rect x="160" y="64" width="180" height="6" rx="2" fill="#e0e0e0"/>
  <rect x="160" y="76" width="200" height="6" rx="2" fill="#eceff1"/>
  <rect x="160" y="88" width="170" height="6" rx="2" fill="#eceff1"/>
  <rect x="160" y="108" width="190" height="8" rx="2" fill="#cfd8dc"/>
  <rect x="160" y="122" width="160" height="6" rx="2" fill="#e0e0e0"/>
  <rect x="160" y="134" width="210" height="6" rx="2" fill="#eceff1"/>
  <!-- Projects -->
  <text x="160" y="175" fill="#263238" font-size="11" font-weight="bold" font-family="Consolas">// proyectos</text>
  <rect x="160" y="185" width="180" height="8" rx="2" fill="#cfd8dc"/>
  <rect x="160" y="199" width="200" height="6" rx="2" fill="#eceff1"/>
  <rect x="160" y="219" width="160" height="8" rx="2" fill="#cfd8dc"/>
  <rect x="160" y="233" width="190" height="6" rx="2" fill="#eceff1"/>
  <!-- Education -->
  <text x="160" y="270" fill="#263238" font-size="11" font-weight="bold" font-family="Consolas">// educación</text>
  <rect x="160" y="280" width="200" height="8" rx="2" fill="#cfd8dc"/>
  <rect x="160" y="294" width="160" height="6" rx="2" fill="#e0e0e0"/>
  <!-- Label -->
  <rect x="215" y="440" width="120" height="30" rx="6" fill="#00e676"/>
  <text x="275" y="460" text-anchor="middle" fill="#263238" font-size="12" font-family="Consolas" font-weight="bold">TECH</text>
</svg>
