<svg xmlns="http://www.w3.org/2000/svg" viewBox="0 0 24 24" fill="none">
  <path d="M18 8C18 6.41 17.37 4.88 16.24 3.76C15.12 2.63 13.59 2 12 2C10.41 2 8.88 2.63 7.76 3.76C6.63 4.88 6 6.41 6 8C6 15 3 17 3 17H21C21 17 18 15 18 8Z" fill="currentColor" opacity="0.3"/>
  <path d="M18 8C18 6.41 17.37 4.88 16.24 3.76C15.12 2.63 13.59 2 12 2C10.41 2 8.88 2.63 7.76 3.76C6.63 4.88 6 6.41 6 8C6 15 3 17 3 17H21C21 17 18 15 18 8Z" stroke="currentColor" stroke-width="2" stroke-linecap="round" stroke-linejoin="round"/>
  <path d="M13.73 21C13.55 21.3 13.3 21.55 12.99 21.71C12.68 21.88 12.34 21.97 11.99 21.97C11.64 21.97 11.3 21.88 10.99 21.71C10.68 21.55 10.43 21.3 10.25 21" stroke="currentColor" stroke-width="2" stroke-linecap="round" stroke-linejoin="round"/>
  <circle cx="18" cy="4" r="3" fill="currentColor" opacity="0.3"/>
  <circle cx="18" cy="4" r="3" stroke="currentColor" stroke-width="2"/>
</svg>
