<svg xmlns="http://www.w3.org/2000/svg" viewBox="0 0 24 24" fill="none">
  <path d="M16 4H18C18.53 4 19.04 4.21 19.41 4.59C19.79 4.96 20 5.47 20 6V20C20 20.53 19.79 21.04 19.41 21.41C19.04 21.79 18.53 22 18 22H6C5.47 22 4.96 21.79 4.59 21.41C4.21 21.04 4 20.53 4 20V6C4 5.47 4.21 4.96 4.59 4.59C4.96 4.21 5.47 4 6 4H8" fill="currentColor" opacity="0.3"/>
  <path d="M16 4H18C18.53 4 19.04 4.21 19.41 4.59C19.79 4.96 20 5.47 20 6V20C20 20.53 19.79 21.04 19.41 21.41C19.04 21.79 18.53 22 18 22H6C5.47 22 4.96 21.79 4.59 21.41C4.21 21.04 4 20.53 4 20V6C4 5.47 4.21 4.96 4.59 4.59C4.96 4.21 5.47 4 6 4H8" stroke="currentColor" stroke-width="2" stroke-linecap="round" stroke-linejoin="round"/>
  <rect x="8" y="2" width="8" height="4" rx="1" fill="currentColor" opacity="0.3"/>
  <rect x="8" y="2" width="8" height="4" rx="1" stroke="currentColor" stroke-width="2"/>
  <path d="M8 12H16" stroke="currentColor" stroke-width="2" stroke-linecap="round"/>
  <path d="M8 16H14" stroke="currentColor" stroke-width="2" stroke-linecap="round"/>
</svg>
