<svg xmlns="http://www.w3.org/2000/svg" viewBox="0 0 24 24" fill="none">
  <path d="M21 2V8H15L19.07 8C18.17 5.58 16.23 3.71 13.78 2.91C11.33 2.11 8.66 2.44 6.47 3.83L3 6V2L21 2Z" fill="currentColor" opacity="0.3"/>
  <path d="M21 2V8H15" stroke="currentColor" stroke-width="2" stroke-linecap="round" stroke-linejoin="round"/>
  <path d="M3 22V16H9" stroke="currentColor" stroke-width="2" stroke-linecap="round" stroke-linejoin="round"/>
  <path d="M19.07 8C18.17 5.58 16.23 3.71 13.78 2.91C11.33 2.11 8.66 2.44 6.47 3.83L3 6" stroke="currentColor" stroke-width="2" stroke-linecap="round" stroke-linejoin="round"/>
  <path d="M4.93 16C5.83 18.42 7.77 20.29 10.22 21.09C12.67 21.89 15.34 21.56 17.53 20.17L21 18" stroke="currentColor" stroke-width="2" stroke-linecap="round" stroke-linejoin="round"/>
</svg>
