<svg xmlns="http://www.w3.org/2000/svg" viewBox="0 0 24 24" fill="none">
  <path d="M3 17.5C5.33 15.17 7.17 13.5 8 13.5C9 13.5 9.5 16 11 16C12.5 16 14.5 11 16 11C17 11 18.5 13 21 17.5" fill="currentColor" opacity="0.15"/>
  <path d="M3 17.5C5.33 15.17 7.17 13.5 8 13.5C9 13.5 9.5 16 11 16C12.5 16 14.5 11 16 11C17 11 18.5 13 21 17.5" stroke="currentColor" stroke-width="2" stroke-linecap="round" stroke-linejoin="round"/>
  <path d="M7.5 14.5L10.5 17.5L21 7L18 4L7.5 14.5Z" fill="currentColor" opacity="0.3"/>
  <path d="M17 3L21 7" stroke="currentColor" stroke-width="2" stroke-linecap="round" stroke-linejoin="round"/>
  <path d="M21 7L10.5 17.5L7 18L7.5 14.5L18 4" stroke="currentColor" stroke-width="2" stroke-linecap="round" stroke-linejoin="round"/>
  <line x1="3" y1="21" x2="21" y2="21" stroke="currentColor" stroke-width="2" stroke-linecap="round"/>
</svg>
