<svg viewBox="0 0 24 24" fill="none" xmlns="http://www.w3.org/2000/svg">
  <!-- Background layer (opacity 0.3) -->
  <path d="M14 2H6a2 2 0 0 0-2 2v16a2 2 0 0 0 2 2h12a2 2 0 0 0 2-2V8l-6-6z" fill="currentColor" opacity="0.3"/>
  <!-- Foreground layer -->
  <path d="M14 2H6a2 2 0 0 0-2 2v16a2 2 0 0 0 2 2h12a2 2 0 0 0 2-2V8l-6-6z" stroke="currentColor" stroke-width="2" stroke-linecap="round" stroke-linejoin="round"/>
  <polyline points="14 2 14 8 20 8" stroke="currentColor" stroke-width="2" stroke-linecap="round" stroke-linejoin="round"/>
  <!-- Text lines -->
  <line x1="8" y1="13" x2="16" y2="13" stroke="currentColor" stroke-width="2" stroke-linecap="round"/>
  <line x1="8" y1="17" x2="14" y2="17" stroke="currentColor" stroke-width="2" stroke-linecap="round"/>
</svg>
