<svg xmlns="http://www.w3.org/2000/svg" width="24" height="24" viewBox="0 0 24 24">
  <defs>
    <linearGradient id="handshakeGrad" x1="0%" y1="0%" x2="100%" y2="100%">
      <stop offset="0%" style="stop-color:var(--ej-color-primary, #ff8c42);stop-opacity:0.3"/>
      <stop offset="100%" style="stop-color:var(--ej-color-secondary, #00a9a5);stop-opacity:0.2"/>
    </linearGradient>
  </defs>
  <path fill="url(#handshakeGrad)" d="M11 17a4 4 0 0 1-4-4V5a2 2 0 0 1 2-2h6a2 2 0 0 1 2 2v8a4 4 0 0 1-4 4h-2z"/>
  <path fill="none" stroke="currentColor" stroke-width="2" stroke-linecap="round" stroke-linejoin="round" d="M11 17a4 4 0 0 1-4-4V5a2 2 0 0 1 2-2h6a2 2 0 0 1 2 2v8a4 4 0 0 1-4 4h-2z"/>
  <path fill="none" stroke="currentColor" stroke-width="2" stroke-linecap="round" stroke-linejoin="round" d="M7 21v-4"/>
  <path fill="none" stroke="currentColor" stroke-width="2" stroke-linecap="round" stroke-linejoin="round" d="M17 21v-4"/>
  <path fill="none" stroke="currentColor" stroke-width="2" stroke-linecap="round" stroke-linejoin="round" d="M9 21h6"/>
  <path fill="none" stroke="currentColor" stroke-width="2" stroke-linecap="round" stroke-linejoin="round" d="M4 12c0-1 .5-3 2-4"/>
  <path fill="none" stroke="currentColor" stroke-width="2" stroke-linecap="round" stroke-linejoin="round" d="M20 12c0-1-.5-3-2-4"/>
</svg>
