<svg xmlns="http://www.w3.org/2000/svg" viewBox="0 0 24 24" fill="none" stroke="currentColor" stroke-width="1.75" stroke-linecap="round" stroke-linejoin="round">
  <path d="M12 2C6.5 2 2 6.5 2 12s4.5 10 10 10c.9 0 1.5-.7 1.5-1.5 0-.4-.1-.7-.4-1-.3-.3-.4-.6-.4-1 0-.8.7-1.5 1.5-1.5H16c3.3 0 6-2.7 6-6 0-5.5-4.5-9-10-9Z" fill="currentColor" opacity="0.12"/>
  <path d="M12 2C6.5 2 2 6.5 2 12s4.5 10 10 10c.9 0 1.5-.7 1.5-1.5 0-.4-.1-.7-.4-1-.3-.3-.4-.6-.4-1 0-.8.7-1.5 1.5-1.5H16c3.3 0 6-2.7 6-6 0-5.5-4.5-9-10-9Z"/>
  <circle cx="7.5" cy="11.5" r="1.5" fill="currentColor" opacity="0.5"/>
  <circle cx="12" cy="7.5" r="1.5" fill="currentColor" opacity="0.5"/>
  <circle cx="16.5" cy="11.5" r="1.5" fill="currentColor" opacity="0.5"/>
  <circle cx="9" cy="15.5" r="1.5" fill="currentColor" opacity="0.5"/>
</svg>
