<svg xmlns="http://www.w3.org/2000/svg" width="24" height="24" viewBox="0 0 24 24" fill="none" stroke="currentColor" stroke-width="2" stroke-linecap="round" stroke-linejoin="round">
  <rect x="3" y="3" width="18" height="18" rx="2"/>
  <path d="M7 7h2v2H7zM9 7h2v2H9zM11 7h2v2h-2zM13 7h2v2h-2zM15 7h2v2h-2z"/>
  <path d="M7 9h2v2H7zM11 9h2v2h-2zM15 9h2v2h-2z"/>
  <path d="M7 11h2v2H7zM9 11h2v2H9zM11 11h2v2h-2zM13 11h2v2h-2zM15 11h2v2h-2z"/>
  <path d="M7 13h2v2H7zM11 13h2v2h-2zM15 13h2v2h-2z"/>
  <path d="M7 15h2v2H7zM9 15h2v2H9zM11 15h2v2h-2zM13 15h2v2h-2zM15 15h2v2h-2z"/>
</svg>
