<svg xmlns="http://www.w3.org/2000/svg" viewBox="0 0 24 24" fill="none">
  <path d="M12 2L13.8 8.2L20 10L13.8 11.8L12 18L10.2 11.8L4 10L10.2 8.2L12 2Z" fill="#FF8C42" opacity="0.2"/>
  <path d="M12 2L13.8 8.2L20 10L13.8 11.8L12 18L10.2 11.8L4 10L10.2 8.2L12 2Z" stroke="#FF8C42" stroke-width="1.5" stroke-linejoin="round"/>
  <path d="M19 15L19.8 17.2L22 18L19.8 18.8L19 21L18.2 18.8L16 18L18.2 17.2L19 15Z" fill="#233D63" opacity="0.6"/>
  <path d="M5 17L5.6 18.4L7 19L5.6 19.6L5 21L4.4 19.6L3 19L4.4 18.4L5 17Z" fill="#00A9A5" opacity="0.5"/>
</svg>
