<svg xmlns="http://www.w3.org/2000/svg" viewBox="0 0 24 24" fill="none" stroke="currentColor" stroke-width="1.5" stroke-linecap="round" stroke-linejoin="round">
  <!-- Store front -->
  <path d="M3 9l1-4h16l1 4"/>
  <path d="M3 9h18v12H3z"/>
  <path d="M9 21V13h6v8"/>
  <!-- Store awning -->
  <path d="M3 9a3 3 0 0 0 6 0"/>
  <path d="M9 9a3 3 0 0 0 6 0"/>
  <path d="M15 9a3 3 0 0 0 6 0"/>
  <!-- Wifi signal -->
  <path d="M17 2.5c1.5.8 2.5 2 2.5 3.5"/>
  <path d="M17 5c.8.4 1.3 1 1.3 1.8"/>
</svg>
