<svg xmlns="http://www.w3.org/2000/svg" viewBox="0 0 24 24" fill="none">
  <!-- Duotone fill: store body -->
  <path d="M3 9h18v12H3z" fill="currentColor" opacity="0.25"/>
  <path d="M9 13h6v8H9z" fill="currentColor" opacity="0.15"/>
  <!-- Store front -->
  <path d="M3 9l1-4h16l1 4" stroke="currentColor" stroke-width="2" stroke-linecap="round" stroke-linejoin="round"/>
  <path d="M3 9h18v12H3z" stroke="currentColor" stroke-width="2"/>
  <path d="M9 21V13h6v8" stroke="currentColor" stroke-width="2"/>
  <!-- Awning -->
  <path d="M3 9a3 3 0 0 0 6 0" stroke="currentColor" stroke-width="2"/>
  <path d="M9 9a3 3 0 0 0 6 0" stroke="currentColor" stroke-width="2"/>
  <path d="M15 9a3 3 0 0 0 6 0" stroke="currentColor" stroke-width="2"/>
  <!-- Wifi -->
  <path d="M17 2.5c1.5.8 2.5 2 2.5 3.5" stroke="currentColor" stroke-width="1.5" stroke-linecap="round"/>
  <path d="M17 5c.8.4 1.3 1 1.3 1.8" stroke="currentColor" stroke-width="1.5" stroke-linecap="round"/>
</svg>
