<svg xmlns="http://www.w3.org/2000/svg" viewBox="0 0 24 24" fill="none">
  <!-- Duotone fill: bulb glow -->
  <path d="M12 2a7 7 0 0 0-4 12.7V17h8v-2.3A7 7 0 0 0 12 2z" fill="currentColor" opacity="0.25"/>
  <!-- Lightbulb -->
  <path d="M9 18h6" stroke="currentColor" stroke-width="2" stroke-linecap="round"/>
  <path d="M10 22h4" stroke="currentColor" stroke-width="2" stroke-linecap="round"/>
  <path d="M12 2a7 7 0 0 0-4 12.7V17h8v-2.3A7 7 0 0 0 12 2z" stroke="currentColor" stroke-width="2" stroke-linecap="round" stroke-linejoin="round"/>
  <!-- Gear inside -->
  <circle cx="12" cy="9" r="2" stroke="currentColor" stroke-width="1.5"/>
  <path d="M12 6v-.5M12 12.5V12M9.17 7.17l-.35-.35M15.18 11.18l-.35-.35M6.5 9H7M17 9h.5M9.17 10.83l-.35.35M15.18 6.82l-.35.35" stroke="currentColor" stroke-width="1.5"/>
</svg>
