<svg xmlns="http://www.w3.org/2000/svg" viewBox="0 0 24 24" fill="none">
  <!-- Duotone fill: cap -->
  <path d="M2 10l10-5 10 5-10 5z" fill="currentColor" opacity="0.25"/>
  <!-- Duotone fill: body -->
  <path d="M6 12v5c0 1.66 2.69 3 6 3s6-1.34 6-3v-5l-6 3-6-3z" fill="currentColor" opacity="0.15"/>
  <!-- Graduation cap -->
  <path d="M2 10l10-5 10 5-10 5z" stroke="currentColor" stroke-width="2" stroke-linejoin="round"/>
  <path d="M6 12v5c0 1.66 2.69 3 6 3s6-1.34 6-3v-5" stroke="currentColor" stroke-width="2"/>
  <!-- Tassel -->
  <line x1="22" y1="10" x2="22" y2="16" stroke="currentColor" stroke-width="2" stroke-linecap="round"/>
  <!-- Play button -->
  <circle cx="12" cy="14" r="2.5" stroke="currentColor" stroke-width="1.5"/>
  <path d="M11 13v2l2-1z" fill="currentColor"/>
</svg>
