<svg xmlns="http://www.w3.org/2000/svg" viewBox="0 0 24 24" fill="none">
  <!-- Duotone fill: gavel head -->
  <rect x="2" y="3" width="8" height="5" rx="1" fill="currentColor" opacity="0.25"/>
  <!-- Duotone fill: scale pan -->
  <path d="M15 11h6c0 1.1-.9 2-2 2h-2c-1.1 0-2-.9-2-2z" fill="currentColor" opacity="0.2"/>
  <!-- Gavel head -->
  <rect x="2" y="3" width="8" height="5" rx="1" stroke="currentColor" stroke-width="2"/>
  <!-- Gavel handle -->
  <line x1="6" y1="8" x2="6" y2="15" stroke="currentColor" stroke-width="2"/>
  <!-- Strike block -->
  <path d="M2 15h8" stroke="currentColor" stroke-width="2" stroke-linecap="round"/>
  <!-- Scale -->
  <line x1="18" y1="4" x2="18" y2="14" stroke="currentColor" stroke-width="2"/>
  <circle cx="18" cy="3.5" r="0.8" fill="currentColor"/>
  <path d="M14 7h8" stroke="currentColor" stroke-width="2" stroke-linecap="round"/>
  <path d="M15 7l-1 4" stroke="currentColor" stroke-width="1.5"/>
  <path d="M21 7l1 4" stroke="currentColor" stroke-width="1.5"/>
  <path d="M14 11h8" stroke="currentColor" stroke-width="2" stroke-linecap="round"/>
  <path d="M14 11c0 1.66 1.34 3 3 3h2c1.66 0 3-1.34 3-3" stroke="currentColor" stroke-width="2"/>
  <!-- Base -->
  <path d="M3 19h18" stroke="currentColor" stroke-width="2" stroke-linecap="round"/>
</svg>
