<svg xmlns="http://www.w3.org/2000/svg" viewBox="0 0 24 24" fill="none">
  <!-- Duotone fill: scale pans -->
  <path d="M3 12h6c0 1.657-1.343 3-3 3s-3-1.343-3-3z" fill="currentColor" opacity="0.25"/>
  <path d="M15 12h6c0 1.657-1.343 3-3 3s-3-1.343-3-3z" fill="currentColor" opacity="0.25"/>
  <!-- Duotone fill: pedestal -->
  <path d="M9.5 20a2.5 2.5 0 0 1 5 0v1h-5v-1z" fill="currentColor" opacity="0.15"/>
  <!-- Base pedestal -->
  <path d="M7 21h10" stroke="currentColor" stroke-width="2" stroke-linecap="round"/>
  <path d="M9.5 21v-1a2.5 2.5 0 0 1 5 0v1" stroke="currentColor" stroke-width="2"/>
  <!-- Center pillar -->
  <line x1="12" y1="3.5" x2="12" y2="18" stroke="currentColor" stroke-width="2"/>
  <!-- Top finial -->
  <circle cx="12" cy="3" r="1.2" fill="currentColor"/>
  <!-- Crossbeam -->
  <path d="M4 7h16" stroke="currentColor" stroke-width="2" stroke-linecap="round"/>
  <!-- Left scale chains + pan -->
  <path d="M4 7l-1 5" stroke="currentColor" stroke-width="1.5"/>
  <path d="M8 7l1 5" stroke="currentColor" stroke-width="1.5"/>
  <path d="M3 12h6" stroke="currentColor" stroke-width="2" stroke-linecap="round"/>
  <path d="M3 12c0 1.657 1.343 3 3 3s3-1.343 3-3" stroke="currentColor" stroke-width="2"/>
  <!-- Right scale chains + pan -->
  <path d="M16 7l-1 5" stroke="currentColor" stroke-width="1.5"/>
  <path d="M20 7l1 5" stroke="currentColor" stroke-width="1.5"/>
  <path d="M15 12h6" stroke="currentColor" stroke-width="2" stroke-linecap="round"/>
  <path d="M15 12c0 1.657 1.343 3 3 3s3-1.343 3-3" stroke="currentColor" stroke-width="2"/>
</svg>
