<svg xmlns="http://www.w3.org/2000/svg" viewBox="0 0 24 24" fill="none" stroke="currentColor" stroke-width="1.5" stroke-linecap="round" stroke-linejoin="round">
  <!-- Base pedestal -->
  <path d="M7 21h10"/>
  <path d="M9.5 21v-1a2.5 2.5 0 0 1 5 0v1"/>
  <!-- Center pillar -->
  <line x1="12" y1="3.5" x2="12" y2="18"/>
  <!-- Top finial -->
  <circle cx="12" cy="3" r="1"/>
  <!-- Crossbeam -->
  <path d="M4 7h16"/>
  <!-- Left scale pan with chains -->
  <path d="M4 7l-1 5"/>
  <path d="M8 7l1 5"/>
  <path d="M3 12h6"/>
  <path d="M3 12c0 1.657 1.343 3 3 3s3-1.343 3-3"/>
  <!-- Right scale pan with chains -->
  <path d="M16 7l-1 5"/>
  <path d="M20 7l1 5"/>
  <path d="M15 12h6"/>
  <path d="M15 12c0 1.657 1.343 3 3 3s3-1.343 3-3"/>
</svg>
