<svg xmlns="http://www.w3.org/2000/svg" viewBox="0 0 24 24" fill="none">
  <!-- Filled pans (duotone background) -->
  <path d="M3 13a3 3 0 0 0 6 0H3z" fill="currentColor" opacity="0.3"/>
  <path d="M15 13a3 3 0 0 0 6 0h-6z" fill="currentColor" opacity="0.3"/>
  <!-- Center pillar -->
  <line x1="12" y1="4" x2="12" y2="20" stroke="currentColor" stroke-width="2"/>
  <!-- Base -->
  <line x1="8" y1="20" x2="16" y2="20" stroke="currentColor" stroke-width="2" stroke-linecap="round"/>
  <!-- Beam -->
  <line x1="5" y1="7" x2="19" y2="7" stroke="currentColor" stroke-width="2"/>
  <!-- Top ornament -->
  <circle cx="12" cy="4" r="1.5" fill="currentColor"/>
  <!-- Left pan -->
  <polyline points="5,7 3,13 9,13 7,7" fill="none" stroke="currentColor" stroke-width="2" stroke-linejoin="round"/>
  <path d="M3 13a3 3 0 0 0 6 0" stroke="currentColor" stroke-width="2"/>
  <!-- Right pan -->
  <polyline points="17,7 15,13 21,13 19,7" fill="none" stroke="currentColor" stroke-width="2" stroke-linejoin="round"/>
  <path d="M15 13a3 3 0 0 0 6 0" stroke="currentColor" stroke-width="2"/>
</svg>
