<svg xmlns="http://www.w3.org/2000/svg" viewBox="0 0 24 24" fill="none">
  <!-- AI Brain — silueta clara reconocible a cualquier tamaño -->
  <!-- Hemisferio izquierdo -->
  <path d="M12 3C9 3 7 5 7 7.5c-2 .5-3 2.5-3 4.5 0 2 1 3.5 2.5 4C7 18 8.5 20 11 20.5l1 .5" stroke="#233D63" stroke-width="1.8" stroke-linecap="round" stroke-linejoin="round" fill="none"/>
  <!-- Hemisferio derecho -->
  <path d="M12 3c3 0 5 2 5 4.5 2 .5 3 2.5 3 4.5 0 2-1 3.5-2.5 4C17 18 15.5 20 13 20.5l-1 .5" stroke="#233D63" stroke-width="1.8" stroke-linecap="round" stroke-linejoin="round" fill="none"/>
  <!-- Surco central -->
  <path d="M12 3v18" stroke="#233D63" stroke-width="1" stroke-dasharray="3 2" opacity="0.3"/>
  <!-- Punto IA central (sparkle) -->
  <circle cx="12" cy="11" r="2.5" fill="#FF8C42"/>
  <!-- Destellos de actividad -->
  <line x1="12" y1="7.5" x2="12" y2="8.5" stroke="#FF8C42" stroke-width="1.5" stroke-linecap="round"/>
  <line x1="12" y1="13.5" x2="12" y2="14.5" stroke="#FF8C42" stroke-width="1.5" stroke-linecap="round"/>
  <line x1="9.5" y1="11" x2="8.5" y2="11" stroke="#FF8C42" stroke-width="1.5" stroke-linecap="round"/>
  <line x1="15.5" y1="11" x2="14.5" y2="11" stroke="#FF8C42" stroke-width="1.5" stroke-linecap="round" opacity="0.7"/>
</svg>
