<svg xmlns="http://www.w3.org/2000/svg" viewBox="0 0 24 24" fill="none">
  <path d="M21 15a2 2 0 0 1-2 2H7l-4 4V5a2 2 0 0 1 2-2h14a2 2 0 0 1 2 2z" fill="#00A9A5" opacity="0.1"/>
  <path d="M21 15a2 2 0 0 1-2 2H7l-4 4V5a2 2 0 0 1 2-2h14a2 2 0 0 1 2 2z" stroke="#233D63" stroke-width="1.5" stroke-linecap="round" stroke-linejoin="round"/>
  <circle cx="8" cy="10" r="1" fill="#FF8C42"/>
  <circle cx="12" cy="10" r="1" fill="#FF8C42" opacity="0.7"/>
  <circle cx="16" cy="10" r="1" fill="#FF8C42" opacity="0.4"/>
</svg>
