<svg width="170" height="47" viewBox="0 0 170 47" fill="none" xmlns="http://www.w3.org/2000/svg">
<path d="M79.5397 41.1381C79.5397 41.8467 79.4056 42.5169 79.1375 43.1298C78.8694 43.7426 78.5055 44.2979 78.0267 44.7576C77.5671 45.2172 77.0118 45.6002 76.3798 45.8683C75.7479 46.1364 75.0776 46.2705 74.369 46.2705H64.1426V27.8666H74.369C75.0776 27.8666 75.7479 28.0007 76.3798 28.2688C77.0118 28.5369 77.5671 28.9008 78.0267 29.3795C78.4864 29.8392 78.8694 30.3945 79.1375 31.0074C79.4056 31.6202 79.5397 32.2905 79.5397 32.999V41.1381ZM66.5364 43.8958H74.3882C75.1734 43.8958 75.8244 43.6277 76.3607 43.0915C76.8969 42.5552 77.1651 41.9041 77.1651 41.1381V32.999C77.1651 32.616 77.0884 32.2521 76.9543 31.9266C76.8203 31.601 76.6096 31.2946 76.3607 31.0457C76.1117 30.7967 75.8245 30.586 75.4798 30.452C75.1351 30.3179 74.7712 30.2413 74.3882 30.2413H66.5364V43.9149V43.8958Z" fill="#5B5B5F"/>
<path d="M85.7262 46.2705H83.3516V27.8666H85.7262V46.2705Z" fill="#5B5B5F"/>
<path d="M92.6762 45.8682C92.0634 45.6001 91.5081 45.2363 91.0485 44.7766C90.5889 44.317 90.225 43.7808 89.9569 43.1488C89.6888 42.536 89.5547 41.8657 89.5547 41.1572V32.9606C89.5547 32.2521 89.6888 31.5818 89.9569 30.969C90.225 30.3562 90.5889 29.8008 91.0485 29.3412C91.5081 28.8815 92.0443 28.5177 92.6762 28.2496C93.2891 27.9815 93.9593 27.8474 94.6679 27.8474H101.6C102.309 27.8474 102.979 27.9815 103.592 28.2496C104.205 28.5177 104.76 28.8815 105.22 29.3412C105.679 29.8008 106.043 30.337 106.311 30.969C106.58 31.5818 106.714 32.2521 106.714 32.9606V33.6501H104.358V32.9606C104.358 32.1946 104.09 31.5435 103.554 31.0073C103.018 30.4711 102.366 30.2029 101.6 30.2029H94.6679C94.2848 30.2029 93.9402 30.2796 93.6146 30.4136C93.289 30.5477 93.0018 30.7583 92.7528 31.0073C92.5038 31.2562 92.3123 31.5435 92.1591 31.8882C92.0251 32.2138 91.9485 32.5776 91.9485 32.9606V41.1572C91.9485 41.5402 92.0251 41.8849 92.1591 42.2104C92.2932 42.536 92.5038 42.8233 92.7528 43.0722C93.0018 43.3212 93.289 43.5127 93.6146 43.6659C93.9402 43.8191 94.2848 43.8766 94.6679 43.8766H101.6C101.983 43.8766 102.347 43.8 102.673 43.6659C102.998 43.5318 103.305 43.3212 103.554 43.0722C103.803 42.8233 103.994 42.536 104.147 42.2104C104.281 41.8849 104.358 41.5402 104.358 41.1572V38.2271H96.9086V35.8524H106.714V41.1572C106.714 41.8657 106.58 42.536 106.311 43.1488C106.043 43.7617 105.679 44.317 105.22 44.7766C104.76 45.2363 104.224 45.6001 103.592 45.8682C102.979 46.1363 102.309 46.2704 101.6 46.2704H94.6679C93.9593 46.2704 93.2891 46.1363 92.6762 45.8682Z" fill="#5B5B5F"/>
<path d="M112.898 46.2705H110.523V27.8666H112.898V46.2705Z" fill="#5B5B5F"/>
<path d="M124.025 31.1223C124.101 30.8158 124.197 30.5094 124.331 30.2222H116.729V27.8666H134.213V30.2222H128.142C127.625 30.2222 127.185 30.3945 126.821 30.7584C126.457 31.1223 126.285 31.5627 126.285 32.0798V46.2705H123.91V32.0798C123.91 31.7542 123.948 31.4287 124.025 31.1223Z" fill="#5B5B5F"/>
<path d="M140.382 46.2705H138.008V33.1139C138.008 32.3862 138.142 31.6968 138.429 31.0648C138.697 30.4328 139.08 29.8775 139.54 29.3987C140 28.9391 140.555 28.5561 141.206 28.288C141.838 28.0198 142.527 27.8666 143.255 27.8666H153.405V46.2705H151.03V38.2463H141.838V35.8716H151.03V30.2222H143.255C142.853 30.2222 142.489 30.2988 142.144 30.452C141.8 30.6052 141.493 30.8159 141.244 31.0648C140.995 31.3138 140.785 31.6202 140.631 31.984C140.478 32.3288 140.402 32.7118 140.402 33.1139V46.2705H140.382Z" fill="#5B5B5F"/>
<path d="M160.301 45.8683C159.688 45.6002 159.133 45.2363 158.673 44.7767C158.214 44.3171 157.85 43.7809 157.582 43.1489C157.314 42.5361 157.18 41.8658 157.18 41.1572V27.8666H159.554V41.1572C159.554 41.5402 159.631 41.885 159.765 42.2105C159.899 42.5361 160.11 42.8233 160.359 43.0723C160.608 43.3213 160.895 43.5128 161.22 43.666C161.546 43.8 161.891 43.8766 162.274 43.8766H169.666V46.2513H162.274C161.565 46.2513 160.895 46.1173 160.282 45.8492L160.301 45.8683Z" fill="#5B5B5F"/>
<path d="M64.1426 0.519592H68.7196V8.42884L79.2142 0.519592H85.4955L73.086 9.48213L87.0467 18.7702H80.0376L68.7196 11.1099V18.7702H64.1426V0.519592Z" fill="#5B5B5F"/>
<path d="M91.6836 0.519592H96.2606V18.7702H91.6836V0.519592Z" fill="#5B5B5F"/>
<path d="M113.989 18.7704H109.355V5.07763H100.469V0.50061H122.683V5.07763H113.97V18.7704H113.989Z" fill="#5B5B5F"/>
<path d="M31.6661 0.5H3.76371C1.81035 0.5 0.105924 2.01291 0.0293217 3.96628C-0.0664312 6.0537 1.5997 7.75812 3.64881 7.75812H31.7044C40.5903 7.75812 47.9249 15.0162 47.6951 23.9022C47.5036 31.5816 41.7776 37.9205 34.3472 39.0504C33.5429 39.1653 32.7385 38.9546 32.1065 38.4759L21.8993 30.5092L31.8385 21.1445C33.2556 19.8039 33.4471 17.5633 32.1832 16.0695C30.8235 14.48 28.4297 14.3651 26.9359 15.7823L17.533 24.6299V15.2843H3.76371C1.81035 15.2843 0.105924 16.7973 0.0293217 18.7506C-0.0664312 20.8381 1.5997 22.5425 3.64881 22.5425H10.2749V42.7465C10.2749 44.6998 11.7878 46.4043 13.7411 46.4809C15.8286 46.5766 17.533 44.9105 17.533 42.8614V36.3118L29.2914 45.485C29.4829 45.6382 29.6936 45.7723 29.9234 45.868C30.4979 46.2702 31.2064 46.5 31.9725 46.5C44.7267 46.5 55.0872 36.0629 54.9723 23.2893C54.8574 10.6116 44.3438 0.5 31.6661 0.5Z" fill="url(#paint0_linear_3814_33275)"/>
<defs>
<linearGradient id="paint0_linear_3814_33275" x1="27.5487" y1="-3.80891" x2="27.4146" y2="45.868" gradientUnits="userSpaceOnUse">
<stop stop-color="#C40333"/>
<stop offset="0.18" stop-color="#C40632"/>
<stop offset="0.33" stop-color="#C71030"/>
<stop offset="0.46" stop-color="#CC212D"/>
<stop offset="0.59" stop-color="#D23828"/>
<stop offset="0.71" stop-color="#DA5722"/>
<stop offset="0.82" stop-color="#E47D1B"/>
<stop offset="0.94" stop-color="#F0A913"/>
<stop offset="1" stop-color="#F8C60E"/>
</linearGradient>
</defs>
</svg>
